<svg width="40" height="40" viewBox="0 0 40 40" fill="none" xmlns="http://www.w3.org/2000/svg">
<path d="M1.5 1.5H24C32.0081 1.5 38.5 7.99187 38.5 16V38.5H16C7.99187 38.5 1.5 32.0081 1.5 24V1.5Z" stroke="#E02025" stroke-width="3"/>
<g clip-path="url(#clip0_2_899)">
<path d="M24.1551 27.2969L23.8756 28.4044C23.0373 28.7251 22.3676 28.9693 21.8689 29.1372C21.3697 29.3056 20.7897 29.3893 20.1288 29.3893C19.1139 29.3893 18.3245 29.1483 17.7615 28.6695C17.1985 28.1889 16.9169 27.5798 16.9169 26.8409C16.9169 26.5549 16.9373 26.2607 16.9798 25.9609C17.0226 25.6608 17.0907 25.3228 17.1839 24.945L18.2316 21.35C18.3248 21.0057 18.4041 20.6795 18.4675 20.3711C18.5319 20.0645 18.5629 19.7825 18.5629 19.5286C18.5629 19.0695 18.4648 18.7484 18.2696 18.5678C18.0744 18.3878 17.702 18.2964 17.149 18.2964C16.8781 18.2964 16.5998 18.3384 16.316 18.4198C16.031 18.5014 15.7874 18.5803 15.5829 18.6537L15.8631 17.5453C16.5494 17.2744 17.2054 17.0424 17.833 16.8499C18.4605 16.6568 19.0535 16.5602 19.6144 16.5602C20.6223 16.5602 21.4 16.7963 21.9462 17.2687C22.4924 17.7413 22.7654 18.3541 22.7654 19.1091C22.7654 19.2653 22.7474 19.5406 22.7089 19.934C22.6713 20.3283 22.6012 20.6896 22.499 21.0182L21.4558 24.5989C21.3703 24.8865 21.2934 25.2152 21.2265 25.5852C21.1575 25.9527 21.1245 26.2336 21.1245 26.4219C21.1245 26.8974 21.2339 27.222 21.4531 27.3945C21.6739 27.5671 22.0543 27.653 22.5945 27.653C22.8482 27.653 23.1368 27.6093 23.4574 27.5237C23.7772 27.438 24.0104 27.3627 24.1551 27.2969ZM24.4197 12.2643C24.4197 12.8881 24.1771 13.4209 23.6898 13.859C23.2036 14.2987 22.6178 14.5187 21.9326 14.5187C21.2452 14.5187 20.6579 14.2987 20.1663 13.859C19.6755 13.4208 19.4296 12.8881 19.4296 12.2643C19.4296 11.6417 19.6755 11.108 20.1663 10.6643C20.657 10.2214 21.2453 10 21.9326 10C22.6177 10 23.2036 10.2219 23.6898 10.6643C24.1775 11.108 24.4197 11.6418 24.4197 12.2643Z" fill="#E02025"/>
</g>
<defs>
<clipPath id="clip0_2_899">
<rect width="20" height="19.3893" fill="white" transform="translate(10 10)"/>
</clipPath>
</defs>
</svg>
