<svg width="52" height="52" viewBox="0 0 52 52" fill="none" xmlns="http://www.w3.org/2000/svg">
<path d="M2 2H36C43.732 2 50 8.26801 50 16V50H16C8.26801 50 2 43.732 2 36V2Z" stroke="#E02025" stroke-width="4"/>
<path d="M20.0072 18.458C20.0429 18.5722 20.0318 18.696 19.9763 18.8021C19.9209 18.9081 19.8255 18.9878 19.7113 19.0236L18.8499 19.2933L20.5824 24.829V17.3315L19.7374 17.5961L20.0072 18.458Z" fill="#E02025"/>
<path d="M29.3961 37.7361H24.1944C24.0747 37.7361 23.9599 37.6885 23.8752 37.6039C23.7906 37.5192 23.743 37.4044 23.743 37.2847V36.3819H22.8403C22.7205 36.3819 22.6057 36.3344 22.5211 36.2497C22.4364 36.1651 22.3889 36.0502 22.3889 35.9305V16.0694C22.3889 15.9497 22.4364 15.8349 22.5211 15.7502C22.6057 15.6656 22.7205 15.618 22.8403 15.618H23.743V14.7153C23.743 14.5955 23.7906 14.4807 23.8752 14.3961C23.9599 14.3114 24.0747 14.2639 24.1944 14.2639H29.6111C29.7308 14.2639 29.8456 14.3114 29.9303 14.3961C30.0149 14.4807 30.0625 14.5955 30.0625 14.7153V15.618H30.9653C31.085 15.618 31.1998 15.6656 31.2844 15.7502C31.3691 15.8349 31.4166 15.9497 31.4166 16.0694V31.0973L31.6474 31.4166H32.3194V13.3611H21.4861V38.6389H30.3725C30.0083 38.3827 29.6799 38.0791 29.3961 37.7361Z" fill="#E02025"/>
<path d="M20.5839 30.8747V27.8514L17.855 19.1322C17.8373 19.0756 17.8309 19.0161 17.8361 18.9571C17.8414 18.898 17.8583 18.8406 17.8858 18.7881C17.9132 18.7355 17.9508 18.6889 17.9963 18.6509C18.0418 18.6129 18.0943 18.5842 18.1508 18.5665L19.0123 18.2969L18.7425 17.4349C18.7068 17.3207 18.7178 17.1969 18.7733 17.0909C18.8288 16.9848 18.9242 16.9051 19.0384 16.8694L20.5839 16.3855V15.4396L16.1842 16.8168L20.5839 30.8747Z" fill="#E02025"/>
<path d="M29.1512 27.9621L30.5138 29.848V16.5208H29.6111C29.4914 16.5208 29.3765 16.4732 29.2919 16.3886C29.2072 16.3039 29.1597 16.1891 29.1597 16.0694V15.1666H24.6458V16.0694C24.6458 16.1891 24.5982 16.3039 24.5136 16.3886C24.4289 16.4732 24.3141 16.5208 24.1944 16.5208H23.2916V35.4791H24.1944C24.3141 35.4791 24.4289 35.5267 24.5136 35.6113C24.5982 35.696 24.6458 35.8108 24.6458 35.9305V36.8333H28.8008C28.4621 36.1732 28.2767 35.4452 28.2585 34.7035L25.4152 30.4955C25.1866 30.1562 25.0542 29.7613 25.0321 29.3528C25.01 28.9443 25.099 28.5374 25.2897 28.1755C24.8535 27.8525 24.5244 27.4058 24.345 26.8935C24.1656 26.3812 24.1443 25.8268 24.2838 25.3023C24.4232 24.7777 24.7171 24.3071 25.1272 23.9515C25.5373 23.5959 26.0448 23.3717 26.5838 23.308C27.1229 23.2442 27.6686 23.3439 28.1504 23.594C28.6321 23.8441 29.0276 24.2332 29.2856 24.7108C29.5435 25.1884 29.6521 25.7324 29.5972 26.2724C29.5423 26.8125 29.3264 27.3235 28.9775 27.7394C29.04 27.81 29.098 27.8844 29.1512 27.9621Z" fill="#E02025"/>
<path d="M33.2213 22.8403V31.868C33.2213 31.9878 33.1738 32.1026 33.0891 32.1872C33.0045 32.2719 32.8896 32.3194 32.7699 32.3194H31.4158C31.3443 32.3194 31.2739 32.3025 31.2103 32.27C31.1467 32.2375 31.0917 32.1903 31.0499 32.1325L28.4146 28.4855C28.4119 28.4816 28.409 28.4777 28.4064 28.4738C28.3082 28.3235 28.1811 28.1941 28.0324 28.0934C27.8837 27.9926 27.7164 27.9225 27.5404 27.887C27.3643 27.8515 27.1829 27.8514 27.0068 27.8866C26.8307 27.9219 26.6634 27.9919 26.5145 28.0924C26.3657 28.193 26.2384 28.3222 26.14 28.4724C26.0416 28.6226 25.974 28.791 25.9413 28.9676C25.9085 29.1442 25.9112 29.3255 25.9493 29.501C25.9873 29.6766 26.0598 29.8428 26.1627 29.99L29.0908 34.3237C29.1577 34.4228 29.1826 34.5444 29.16 34.6619C29.1836 35.7238 29.6217 36.7344 30.3806 37.4776C31.1395 38.2208 32.1591 38.6376 33.2213 38.6389H35.9296V28.2569C35.9294 28.0347 35.8747 27.8159 35.7704 27.6197L33.2213 22.8403Z" fill="#E02025"/>
<path d="M25.0972 26.0001C25.0972 26.29 25.167 26.5757 25.3009 26.8329C25.4347 27.0901 25.6286 27.3113 25.8661 27.4776C25.9162 27.4372 25.9676 27.3984 26.0218 27.3619C26.3474 27.1422 26.7248 27.0113 27.1165 26.9821C27.5082 26.9529 27.9008 27.0264 28.2554 27.1953C28.449 26.9764 28.5865 26.7137 28.6562 26.4299C28.7259 26.146 28.7256 25.8495 28.6554 25.5658C28.5852 25.2821 28.4472 25.0197 28.2533 24.8011C28.0593 24.5824 27.8152 24.4142 27.5418 24.3107C27.2685 24.2073 26.9741 24.1717 26.684 24.2071C26.3939 24.2425 26.1167 24.3478 25.8763 24.514C25.6358 24.6801 25.4393 24.9022 25.3036 25.161C25.1679 25.4199 25.0971 25.7078 25.0972 26.0001Z" fill="#E02025"/>
</svg>
